<?xml version="1.0" standalone="no"?>
<svg xmlns="http://www.w3.org/2000/svg" width="35" height="35" xmlns:xlink="http://www.w3.org/1999/xlink"
    viewBox="0 0 35 35">
    <defs>
        <clipPath id="clip-path-dot-color-20">
            <circle cx="3.5" cy="3.5" r="3.5" transform="rotate(0,60.5,4.5)" />
            <circle cx="24.5" cy="3.5" r="3.5" transform="rotate(0,81.5,4.5)" />
            <circle cx="31.5" cy="3.5" r="3.5" transform="rotate(0,88.5,4.5)" />
            <circle cx="24.5" cy="10.5" r="3.5" transform="rotate(0,81.5,11.5)" />
            <circle cx="31.5" cy="10.5" r="3.5" transform="rotate(0,88.5,11.5)" />
            <circle cx="3.5" cy="17.5" r="3.5" transform="rotate(0,60.5,18.5)" />
            <circle cx="17.5" cy="17.5" r="3.5" transform="rotate(0,74.5,18.5)" />
            <circle cx="24.5" cy="17.5" r="3.5" transform="rotate(0,81.5,18.5)" />
            <circle cx="3.5" cy="24.5" r="3.5" transform="rotate(0,60.5,25.5)" />
            <circle cx="17.5" cy="24.5" r="3.5" transform="rotate(0,74.5,25.5)" />
            <circle cx="10.5" cy="31.5" r="3.5" transform="rotate(0,67.5,32.5)" />
            <circle cx="24.5" cy="31.5" r="3.5" transform="rotate(0,81.5,32.5)" />
            <circle cx="31.5" cy="31.5" r="3.5" transform="rotate(0,88.5,32.5)" />
        </clipPath>
    </defs>
    <rect x="0" y="0" height="35" width="35" clip-path="url('#clip-path-dot-color-20')" fill="#000000" />
</svg>
