<?xml version="1.0" standalone="no"?>
<svg xmlns="http://www.w3.org/2000/svg" width="50" height="50" xmlns:xlink="http://www.w3.org/1999/xlink"
    viewBox="0 0 50 50">
    <defs>
        <clipPath id="clip-path-dot-color-57">
            <path clip-rule="evenodd"
                d="M 1 18.5v 14a 17.5 17.5, 0, 0, 0, 17.5 17.5h 14a 17.5 17.5, 0, 0, 0, 17.5 -17.5v -14a 17.5 17.5, 0, 0, 0, -17.5 -17.5h -14a 17.5 17.5, 0, 0, 0, -17.5 17.5M 18.5 8h 14a 10.5 10.5, 0, 0, 1, 10.5 10.5v 14a 10.5 10.5, 0, 0, 1, -10.5 10.5h -14a 10.5 10.5, 0, 0, 1, -10.5 -10.5v -14a 10.5 10.5, 0, 0, 1, 10.5 -10.5" />
        </clipPath>
    </defs>
    <rect x="0" y="0" height="50" width="50" clip-path="url('#clip-path-dot-color-57')" fill="#000000" />
</svg>
