<?xml version="1.0" standalone="no"?>
<svg xmlns="http://www.w3.org/2000/svg" width="35" height="35" xmlns:xlink="http://www.w3.org/1999/xlink"
    viewBox="0 0 35 35">
    <defs>
        <clipPath id="clip-path-dot-color-22">
            <circle cx="3.5" cy="3.5" r="3.5" />
            <path d="M 21 0m 0 7h 7v -7a 7 7, 0, 0, 0, -7 7" />
            <path d="M 28 0v 7h 7a 7 7, 0, 0, 0, -7 -7" />
            <rect x="21" y="7" width="7" height="7" />
            <path d="M 28 7v 7a 7 7, 0, 0, 0, 7 -7" />
            <path d="M 0 14m 0 3.5v 3.5h 7v -3.5a 3.5 3.5, 0, 0, 0, -7 0" />
            <path d="M 14 14m 0 7h 7v -7a 7 7, 0, 0, 0, -7 7" />
            <path d="M 21 14v 7a 7 7, 0, 0, 0, 7 -7" />
            <path d="M 0 21v 3.5a 3.5 3.5, 0, 0, 0, 7 0v -3.5" />
            <path d="M 14 21v 3.5a 3.5 3.5, 0, 0, 0, 7 0v -3.5" />
            <circle cx="10.5" cy="31.5" r="3.5" />
            <path d="M 21 28m 3.5 0a 3.5 3.5, 0, 0, 0, 0 7h 3.5 0v -7h -3.5" />
            <path d="M 28 28v 7h 3.5a 3.5 3.5, 0, 0, 0, 0 -7" />
        </clipPath>
    </defs>
    <rect x="0" y="0" height="35" width="35" clip-path="url('#clip-path-dot-color-22')" fill="#000000" />
</svg>
