<?xml version="1.0" standalone="no"?>
<svg xmlns="http://www.w3.org/2000/svg" width="150" height="150" xmlns:xlink="http://www.w3.org/1999/xlink" viewBox="0 0 150 150"><defs><clipPath id="clip-path-background-color-7"><rect x="0" y="0" width="150" height="150"/></clipPath><clipPath id="clip-path-dot-color-7"><rect x="41" y="9" width="4" height="4" transform="rotate(0,43,11)"/><rect x="45" y="9" width="4" height="4" transform="rotate(0,47,11)"/><rect x="49" y="9" width="4" height="4" transform="rotate(0,51,11)"/><rect x="53" y="9" width="4" height="4" transform="rotate(0,55,11)"/><rect x="65" y="9" width="4" height="4" transform="rotate(0,67,11)"/><rect x="69" y="9" width="4" height="4" transform="rotate(0,71,11)"/><rect x="73" y="9" width="4" height="4" transform="rotate(0,75,11)"/><rect x="81" y="9" width="4" height="4" transform="rotate(0,83,11)"/><rect x="85" y="9" width="4" height="4" transform="rotate(0,87,11)"/><rect x="97" y="9" width="4" height="4" transform="rotate(0,99,11)"/><rect x="101" y="9" width="4" height="4" transform="rotate(0,103,11)"/><rect x="45" y="13" width="4" height="4" transform="rotate(0,47,15)"/><rect x="49" y="13" width="4" height="4" transform="rotate(0,51,15)"/><rect x="53" y="13" width="4" height="4" transform="rotate(0,55,15)"/><rect x="65" y="13" width="4" height="4" transform="rotate(0,67,15)"/><rect x="69" y="13" width="4" height="4" transform="rotate(0,71,15)"/><rect x="77" y="13" width="4" height="4" transform="rotate(0,79,15)"/><rect x="89" y="13" width="4" height="4" transform="rotate(0,91,15)"/><rect x="101" y="13" width="4" height="4" transform="rotate(0,103,15)"/><rect x="105" y="13" width="4" height="4" transform="rotate(0,107,15)"/><rect x="41" y="17" width="4" height="4" transform="rotate(0,43,19)"/><rect x="45" y="17" width="4" height="4" transform="rotate(0,47,19)"/><rect x="53" y="17" width="4" height="4" transform="rotate(0,55,19)"/><rect x="57" y="17" width="4" height="4" transform="rotate(0,59,19)"/><rect x="61" y="17" width="4" height="4" transform="rotate(0,63,19)"/><rect x="65" y="17" width="4" height="4" transform="rotate(0,67,19)"/><rect x="77" y="17" width="4" height="4" transform="rotate(0,79,19)"/><rect x="85" y="17" width="4" height="4" transform="rotate(0,87,19)"/><rect x="101" y="17" width="4" height="4" transform="rotate(0,103,19)"/><rect x="105" y="17" width="4" height="4" transform="rotate(0,107,19)"/><rect x="41" y="21" width="4" height="4" transform="rotate(0,43,23)"/><rect x="45" y="21" width="4" height="4" transform="rotate(0,47,23)"/><rect x="53" y="21" width="4" height="4" transform="rotate(0,55,23)"/><rect x="57" y="21" width="4" height="4" transform="rotate(0,59,23)"/><rect x="61" y="21" width="4" height="4" transform="rotate(0,63,23)"/><rect x="65" y="21" width="4" height="4" transform="rotate(0,67,23)"/><rect x="69" y="21" width="4" height="4" transform="rotate(0,71,23)"/><rect x="77" y="21" width="4" height="4" transform="rotate(0,79,23)"/><rect x="85" y="21" width="4" height="4" transform="rotate(0,87,23)"/><rect x="105" y="21" width="4" height="4" transform="rotate(0,107,23)"/><rect x="45" y="25" width="4" height="4" transform="rotate(0,47,27)"/><rect x="69" y="25" width="4" height="4" transform="rotate(0,71,27)"/><rect x="77" y="25" width="4" height="4" transform="rotate(0,79,27)"/><rect x="85" y="25" width="4" height="4" transform="rotate(0,87,27)"/><rect x="93" y="25" width="4" height="4" transform="rotate(0,95,27)"/><rect x="97" y="25" width="4" height="4" transform="rotate(0,99,27)"/><rect x="101" y="25" width="4" height="4" transform="rotate(0,103,27)"/><rect x="41" y="29" width="4" height="4" transform="rotate(0,43,31)"/><rect x="57" y="29" width="4" height="4" transform="rotate(0,59,31)"/><rect x="61" y="29" width="4" height="4" transform="rotate(0,63,31)"/><rect x="65" y="29" width="4" height="4" transform="rotate(0,67,31)"/><rect x="69" y="29" width="4" height="4" transform="rotate(0,71,31)"/><rect x="77" y="29" width="4" height="4" transform="rotate(0,79,31)"/><rect x="81" y="29" width="4" height="4" transform="rotate(0,83,31)"/><rect x="89" y="29" width="4" height="4" transform="rotate(0,91,31)"/><rect x="97" y="29" width="4" height="4" transform="rotate(0,99,31)"/><rect x="41" y="33" width="4" height="4" transform="rotate(0,43,35)"/><rect x="49" y="33" width="4" height="4" transform="rotate(0,51,35)"/><rect x="57" y="33" width="4" height="4" transform="rotate(0,59,35)"/><rect x="65" y="33" width="4" height="4" transform="rotate(0,67,35)"/><rect x="73" y="33" width="4" height="4" transform="rotate(0,75,35)"/><rect x="81" y="33" width="4" height="4" transform="rotate(0,83,35)"/><rect x="89" y="33" width="4" height="4" transform="rotate(0,91,35)"/><rect x="97" y="33" width="4" height="4" transform="rotate(0,99,35)"/><rect x="105" y="33" width="4" height="4" transform="rotate(0,107,35)"/><rect x="41" y="37" width="4" height="4" transform="rotate(0,43,39)"/><rect x="53" y="37" width="4" height="4" transform="rotate(0,55,39)"/><rect x="57" y="37" width="4" height="4" transform="rotate(0,59,39)"/><rect x="61" y="37" width="4" height="4" transform="rotate(0,63,39)"/><rect x="73" y="37" width="4" height="4" transform="rotate(0,75,39)"/><rect x="77" y="37" width="4" height="4" transform="rotate(0,79,39)"/><rect x="81" y="37" width="4" height="4" transform="rotate(0,83,39)"/><rect x="85" y="37" width="4" height="4" transform="rotate(0,87,39)"/><rect x="89" y="37" width="4" height="4" transform="rotate(0,91,39)"/><rect x="93" y="37" width="4" height="4" transform="rotate(0,95,39)"/><rect x="101" y="37" width="4" height="4" transform="rotate(0,103,39)"/><rect x="105" y="37" width="4" height="4" transform="rotate(0,107,39)"/><rect x="13" y="41" width="4" height="4" transform="rotate(0,15,43)"/><rect x="21" y="41" width="4" height="4" transform="rotate(0,23,43)"/><rect x="29" y="41" width="4" height="4" transform="rotate(0,31,43)"/><rect x="33" y="41" width="4" height="4" transform="rotate(0,35,43)"/><rect x="37" y="41" width="4" height="4" transform="rotate(0,39,43)"/><rect x="41" y="41" width="4" height="4" transform="rotate(0,43,43)"/><rect x="53" y="41" width="4" height="4" transform="rotate(0,55,43)"/><rect x="61" y="41" width="4" height="4" transform="rotate(0,63,43)"/><rect x="65" y="41" width="4" height="4" transform="rotate(0,67,43)"/><rect x="73" y="41" width="4" height="4" transform="rotate(0,75,43)"/><rect x="85" y="41" width="4" height="4" transform="rotate(0,87,43)"/><rect x="93" y="41" width="4" height="4" transform="rotate(0,95,43)"/><rect x="101" y="41" width="4" height="4" transform="rotate(0,103,43)"/><rect x="109" y="41" width="4" height="4" transform="rotate(0,111,43)"/><rect x="113" y="41" width="4" height="4" transform="rotate(0,115,43)"/><rect x="117" y="41" width="4" height="4" transform="rotate(0,119,43)"/><rect x="125" y="41" width="4" height="4" transform="rotate(0,127,43)"/><rect x="129" y="41" width="4" height="4" transform="rotate(0,131,43)"/><rect x="137" y="41" width="4" height="4" transform="rotate(0,139,43)"/><rect x="9" y="45" width="4" height="4" transform="rotate(0,11,47)"/><rect x="25" y="45" width="4" height="4" transform="rotate(0,27,47)"/><rect x="29" y="45" width="4" height="4" transform="rotate(0,31,47)"/><rect x="37" y="45" width="4" height="4" transform="rotate(0,39,47)"/><rect x="41" y="45" width="4" height="4" transform="rotate(0,43,47)"/><rect x="45" y="45" width="4" height="4" transform="rotate(0,47,47)"/><rect x="53" y="45" width="4" height="4" transform="rotate(0,55,47)"/><rect x="57" y="45" width="4" height="4" transform="rotate(0,59,47)"/><rect x="61" y="45" width="4" height="4" transform="rotate(0,63,47)"/><rect x="65" y="45" width="4" height="4" transform="rotate(0,67,47)"/><rect x="89" y="45" width="4" height="4" transform="rotate(0,91,47)"/><rect x="97" y="45" width="4" height="4" transform="rotate(0,99,47)"/><rect x="105" y="45" width="4" height="4" transform="rotate(0,107,47)"/><rect x="109" y="45" width="4" height="4" transform="rotate(0,111,47)"/><rect x="113" y="45" width="4" height="4" transform="rotate(0,115,47)"/><rect x="117" y="45" width="4" height="4" transform="rotate(0,119,47)"/><rect x="133" y="45" width="4" height="4" transform="rotate(0,135,47)"/><rect x="137" y="45" width="4" height="4" transform="rotate(0,139,47)"/><rect x="9" y="49" width="4" height="4" transform="rotate(0,11,51)"/><rect x="25" y="49" width="4" height="4" transform="rotate(0,27,51)"/><rect x="33" y="49" width="4" height="4" transform="rotate(0,35,51)"/><rect x="41" y="49" width="4" height="4" transform="rotate(0,43,51)"/><rect x="49" y="49" width="4" height="4" transform="rotate(0,51,51)"/><rect x="57" y="49" width="4" height="4" transform="rotate(0,59,51)"/><rect x="61" y="49" width="4" height="4" transform="rotate(0,63,51)"/><rect x="69" y="49" width="4" height="4" transform="rotate(0,71,51)"/><rect x="77" y="49" width="4" height="4" transform="rotate(0,79,51)"/><rect x="85" y="49" width="4" height="4" transform="rotate(0,87,51)"/><rect x="89" y="49" width="4" height="4" transform="rotate(0,91,51)"/><rect x="105" y="49" width="4" height="4" transform="rotate(0,107,51)"/><rect x="113" y="49" width="4" height="4" transform="rotate(0,115,51)"/><rect x="117" y="49" width="4" height="4" transform="rotate(0,119,51)"/><rect x="121" y="49" width="4" height="4" transform="rotate(0,123,51)"/><rect x="129" y="49" width="4" height="4" transform="rotate(0,131,51)"/><rect x="137" y="49" width="4" height="4" transform="rotate(0,139,51)"/><rect x="9" y="53" width="4" height="4" transform="rotate(0,11,55)"/><rect x="17" y="53" width="4" height="4" transform="rotate(0,19,55)"/><rect x="29" y="53" width="4" height="4" transform="rotate(0,31,55)"/><rect x="45" y="53" width="4" height="4" transform="rotate(0,47,55)"/><rect x="49" y="53" width="4" height="4" transform="rotate(0,51,55)"/><rect x="53" y="53" width="4" height="4" transform="rotate(0,55,55)"/><rect x="65" y="53" width="4" height="4" transform="rotate(0,67,55)"/><rect x="77" y="53" width="4" height="4" transform="rotate(0,79,55)"/><rect x="93" y="53" width="4" height="4" transform="rotate(0,95,55)"/><rect x="97" y="53" width="4" height="4" transform="rotate(0,99,55)"/><rect x="101" y="53" width="4" height="4" transform="rotate(0,103,55)"/><rect x="105" y="53" width="4" height="4" transform="rotate(0,107,55)"/><rect x="109" y="53" width="4" height="4" transform="rotate(0,111,55)"/><rect x="121" y="53" width="4" height="4" transform="rotate(0,123,55)"/><rect x="125" y="53" width="4" height="4" transform="rotate(0,127,55)"/><rect x="13" y="57" width="4" height="4" transform="rotate(0,15,59)"/><rect x="25" y="57" width="4" height="4" transform="rotate(0,27,59)"/><rect x="33" y="57" width="4" height="4" transform="rotate(0,35,59)"/><rect x="41" y="57" width="4" height="4" transform="rotate(0,43,59)"/><rect x="53" y="57" width="4" height="4" transform="rotate(0,55,59)"/><rect x="57" y="57" width="4" height="4" transform="rotate(0,59,59)"/><rect x="65" y="57" width="4" height="4" transform="rotate(0,67,59)"/><rect x="69" y="57" width="4" height="4" transform="rotate(0,71,59)"/><rect x="85" y="57" width="4" height="4" transform="rotate(0,87,59)"/><rect x="89" y="57" width="4" height="4" transform="rotate(0,91,59)"/><rect x="101" y="57" width="4" height="4" transform="rotate(0,103,59)"/><rect x="113" y="57" width="4" height="4" transform="rotate(0,115,59)"/><rect x="117" y="57" width="4" height="4" transform="rotate(0,119,59)"/><rect x="125" y="57" width="4" height="4" transform="rotate(0,127,59)"/><rect x="133" y="57" width="4" height="4" transform="rotate(0,135,59)"/><rect x="137" y="57" width="4" height="4" transform="rotate(0,139,59)"/><rect x="13" y="61" width="4" height="4" transform="rotate(0,15,63)"/><rect x="17" y="61" width="4" height="4" transform="rotate(0,19,63)"/><rect x="41" y="61" width="4" height="4" transform="rotate(0,43,63)"/><rect x="45" y="61" width="4" height="4" transform="rotate(0,47,63)"/><rect x="49" y="61" width="4" height="4" transform="rotate(0,51,63)"/><rect x="65" y="61" width="4" height="4" transform="rotate(0,67,63)"/><rect x="73" y="61" width="4" height="4" transform="rotate(0,75,63)"/><rect x="77" y="61" width="4" height="4" transform="rotate(0,79,63)"/><rect x="93" y="61" width="4" height="4" transform="rotate(0,95,63)"/><rect x="109" y="61" width="4" height="4" transform="rotate(0,111,63)"/><rect x="113" y="61" width="4" height="4" transform="rotate(0,115,63)"/><rect x="121" y="61" width="4" height="4" transform="rotate(0,123,63)"/><rect x="125" y="61" width="4" height="4" transform="rotate(0,127,63)"/><rect x="133" y="61" width="4" height="4" transform="rotate(0,135,63)"/><rect x="137" y="61" width="4" height="4" transform="rotate(0,139,63)"/><rect x="9" y="65" width="4" height="4" transform="rotate(0,11,67)"/><rect x="17" y="65" width="4" height="4" transform="rotate(0,19,67)"/><rect x="33" y="65" width="4" height="4" transform="rotate(0,35,67)"/><rect x="37" y="65" width="4" height="4" transform="rotate(0,39,67)"/><rect x="41" y="65" width="4" height="4" transform="rotate(0,43,67)"/><rect x="61" y="65" width="4" height="4" transform="rotate(0,63,67)"/><rect x="73" y="65" width="4" height="4" transform="rotate(0,75,67)"/><rect x="77" y="65" width="4" height="4" transform="rotate(0,79,67)"/><rect x="89" y="65" width="4" height="4" transform="rotate(0,91,67)"/><rect x="101" y="65" width="4" height="4" transform="rotate(0,103,67)"/><rect x="109" y="65" width="4" height="4" transform="rotate(0,111,67)"/><rect x="113" y="65" width="4" height="4" transform="rotate(0,115,67)"/><rect x="117" y="65" width="4" height="4" transform="rotate(0,119,67)"/><rect x="129" y="65" width="4" height="4" transform="rotate(0,131,67)"/><rect x="133" y="65" width="4" height="4" transform="rotate(0,135,67)"/><rect x="9" y="69" width="4" height="4" transform="rotate(0,11,71)"/><rect x="13" y="69" width="4" height="4" transform="rotate(0,15,71)"/><rect x="25" y="69" width="4" height="4" transform="rotate(0,27,71)"/><rect x="29" y="69" width="4" height="4" transform="rotate(0,31,71)"/><rect x="37" y="69" width="4" height="4" transform="rotate(0,39,71)"/><rect x="41" y="69" width="4" height="4" transform="rotate(0,43,71)"/><rect x="53" y="69" width="4" height="4" transform="rotate(0,55,71)"/><rect x="57" y="69" width="4" height="4" transform="rotate(0,59,71)"/><rect x="61" y="69" width="4" height="4" transform="rotate(0,63,71)"/><rect x="77" y="69" width="4" height="4" transform="rotate(0,79,71)"/><rect x="85" y="69" width="4" height="4" transform="rotate(0,87,71)"/><rect x="93" y="69" width="4" height="4" transform="rotate(0,95,71)"/><rect x="97" y="69" width="4" height="4" transform="rotate(0,99,71)"/><rect x="105" y="69" width="4" height="4" transform="rotate(0,107,71)"/><rect x="113" y="69" width="4" height="4" transform="rotate(0,115,71)"/><rect x="121" y="69" width="4" height="4" transform="rotate(0,123,71)"/><rect x="133" y="69" width="4" height="4" transform="rotate(0,135,71)"/><rect x="9" y="73" width="4" height="4" transform="rotate(0,11,75)"/><rect x="29" y="73" width="4" height="4" transform="rotate(0,31,75)"/><rect x="33" y="73" width="4" height="4" transform="rotate(0,35,75)"/><rect x="37" y="73" width="4" height="4" transform="rotate(0,39,75)"/><rect x="45" y="73" width="4" height="4" transform="rotate(0,47,75)"/><rect x="53" y="73" width="4" height="4" transform="rotate(0,55,75)"/><rect x="57" y="73" width="4" height="4" transform="rotate(0,59,75)"/><rect x="65" y="73" width="4" height="4" transform="rotate(0,67,75)"/><rect x="69" y="73" width="4" height="4" transform="rotate(0,71,75)"/><rect x="77" y="73" width="4" height="4" transform="rotate(0,79,75)"/><rect x="85" y="73" width="4" height="4" transform="rotate(0,87,75)"/><rect x="89" y="73" width="4" height="4" transform="rotate(0,91,75)"/><rect x="93" y="73" width="4" height="4" transform="rotate(0,95,75)"/><rect x="97" y="73" width="4" height="4" transform="rotate(0,99,75)"/><rect x="105" y="73" width="4" height="4" transform="rotate(0,107,75)"/><rect x="113" y="73" width="4" height="4" transform="rotate(0,115,75)"/><rect x="121" y="73" width="4" height="4" transform="rotate(0,123,75)"/><rect x="125" y="73" width="4" height="4" transform="rotate(0,127,75)"/><rect x="133" y="73" width="4" height="4" transform="rotate(0,135,75)"/><rect x="17" y="77" width="4" height="4" transform="rotate(0,19,79)"/><rect x="21" y="77" width="4" height="4" transform="rotate(0,23,79)"/><rect x="29" y="77" width="4" height="4" transform="rotate(0,31,79)"/><rect x="41" y="77" width="4" height="4" transform="rotate(0,43,79)"/><rect x="45" y="77" width="4" height="4" transform="rotate(0,47,79)"/><rect x="65" y="77" width="4" height="4" transform="rotate(0,67,79)"/><rect x="73" y="77" width="4" height="4" transform="rotate(0,75,79)"/><rect x="77" y="77" width="4" height="4" transform="rotate(0,79,79)"/><rect x="89" y="77" width="4" height="4" transform="rotate(0,91,79)"/><rect x="93" y="77" width="4" height="4" transform="rotate(0,95,79)"/><rect x="97" y="77" width="4" height="4" transform="rotate(0,99,79)"/><rect x="101" y="77" width="4" height="4" transform="rotate(0,103,79)"/><rect x="117" y="77" width="4" height="4" transform="rotate(0,119,79)"/><rect x="125" y="77" width="4" height="4" transform="rotate(0,127,79)"/><rect x="29" y="81" width="4" height="4" transform="rotate(0,31,83)"/><rect x="33" y="81" width="4" height="4" transform="rotate(0,35,83)"/><rect x="37" y="81" width="4" height="4" transform="rotate(0,39,83)"/><rect x="41" y="81" width="4" height="4" transform="rotate(0,43,83)"/><rect x="49" y="81" width="4" height="4" transform="rotate(0,51,83)"/><rect x="57" y="81" width="4" height="4" transform="rotate(0,59,83)"/><rect x="65" y="81" width="4" height="4" transform="rotate(0,67,83)"/><rect x="77" y="81" width="4" height="4" transform="rotate(0,79,83)"/><rect x="81" y="81" width="4" height="4" transform="rotate(0,83,83)"/><rect x="93" y="81" width="4" height="4" transform="rotate(0,95,83)"/><rect x="109" y="81" width="4" height="4" transform="rotate(0,111,83)"/><rect x="129" y="81" width="4" height="4" transform="rotate(0,131,83)"/><rect x="133" y="81" width="4" height="4" transform="rotate(0,135,83)"/><rect x="137" y="81" width="4" height="4" transform="rotate(0,139,83)"/><rect x="17" y="85" width="4" height="4" transform="rotate(0,19,87)"/><rect x="29" y="85" width="4" height="4" transform="rotate(0,31,87)"/><rect x="41" y="85" width="4" height="4" transform="rotate(0,43,87)"/><rect x="53" y="85" width="4" height="4" transform="rotate(0,55,87)"/><rect x="57" y="85" width="4" height="4" transform="rotate(0,59,87)"/><rect x="65" y="85" width="4" height="4" transform="rotate(0,67,87)"/><rect x="73" y="85" width="4" height="4" transform="rotate(0,75,87)"/><rect x="81" y="85" width="4" height="4" transform="rotate(0,83,87)"/><rect x="89" y="85" width="4" height="4" transform="rotate(0,91,87)"/><rect x="93" y="85" width="4" height="4" transform="rotate(0,95,87)"/><rect x="105" y="85" width="4" height="4" transform="rotate(0,107,87)"/><rect x="109" y="85" width="4" height="4" transform="rotate(0,111,87)"/><rect x="117" y="85" width="4" height="4" transform="rotate(0,119,87)"/><rect x="133" y="85" width="4" height="4" transform="rotate(0,135,87)"/><rect x="137" y="85" width="4" height="4" transform="rotate(0,139,87)"/><rect x="9" y="89" width="4" height="4" transform="rotate(0,11,91)"/><rect x="17" y="89" width="4" height="4" transform="rotate(0,19,91)"/><rect x="21" y="89" width="4" height="4" transform="rotate(0,23,91)"/><rect x="29" y="89" width="4" height="4" transform="rotate(0,31,91)"/><rect x="33" y="89" width="4" height="4" transform="rotate(0,35,91)"/><rect x="45" y="89" width="4" height="4" transform="rotate(0,47,91)"/><rect x="49" y="89" width="4" height="4" transform="rotate(0,51,91)"/><rect x="57" y="89" width="4" height="4" transform="rotate(0,59,91)"/><rect x="69" y="89" width="4" height="4" transform="rotate(0,71,91)"/><rect x="81" y="89" width="4" height="4" transform="rotate(0,83,91)"/><rect x="89" y="89" width="4" height="4" transform="rotate(0,91,91)"/><rect x="93" y="89" width="4" height="4" transform="rotate(0,95,91)"/><rect x="101" y="89" width="4" height="4" transform="rotate(0,103,91)"/><rect x="109" y="89" width="4" height="4" transform="rotate(0,111,91)"/><rect x="117" y="89" width="4" height="4" transform="rotate(0,119,91)"/><rect x="133" y="89" width="4" height="4" transform="rotate(0,135,91)"/><rect x="137" y="89" width="4" height="4" transform="rotate(0,139,91)"/><rect x="13" y="93" width="4" height="4" transform="rotate(0,15,95)"/><rect x="17" y="93" width="4" height="4" transform="rotate(0,19,95)"/><rect x="29" y="93" width="4" height="4" transform="rotate(0,31,95)"/><rect x="41" y="93" width="4" height="4" transform="rotate(0,43,95)"/><rect x="49" y="93" width="4" height="4" transform="rotate(0,51,95)"/><rect x="65" y="93" width="4" height="4" transform="rotate(0,67,95)"/><rect x="73" y="93" width="4" height="4" transform="rotate(0,75,95)"/><rect x="77" y="93" width="4" height="4" transform="rotate(0,79,95)"/><rect x="85" y="93" width="4" height="4" transform="rotate(0,87,95)"/><rect x="89" y="93" width="4" height="4" transform="rotate(0,91,95)"/><rect x="93" y="93" width="4" height="4" transform="rotate(0,95,95)"/><rect x="105" y="93" width="4" height="4" transform="rotate(0,107,95)"/><rect x="109" y="93" width="4" height="4" transform="rotate(0,111,95)"/><rect x="113" y="93" width="4" height="4" transform="rotate(0,115,95)"/><rect x="117" y="93" width="4" height="4" transform="rotate(0,119,95)"/><rect x="133" y="93" width="4" height="4" transform="rotate(0,135,95)"/><rect x="137" y="93" width="4" height="4" transform="rotate(0,139,95)"/><rect x="9" y="97" width="4" height="4" transform="rotate(0,11,99)"/><rect x="13" y="97" width="4" height="4" transform="rotate(0,15,99)"/><rect x="17" y="97" width="4" height="4" transform="rotate(0,19,99)"/><rect x="29" y="97" width="4" height="4" transform="rotate(0,31,99)"/><rect x="33" y="97" width="4" height="4" transform="rotate(0,35,99)"/><rect x="37" y="97" width="4" height="4" transform="rotate(0,39,99)"/><rect x="41" y="97" width="4" height="4" transform="rotate(0,43,99)"/><rect x="45" y="97" width="4" height="4" transform="rotate(0,47,99)"/><rect x="49" y="97" width="4" height="4" transform="rotate(0,51,99)"/><rect x="65" y="97" width="4" height="4" transform="rotate(0,67,99)"/><rect x="69" y="97" width="4" height="4" transform="rotate(0,71,99)"/><rect x="73" y="97" width="4" height="4" transform="rotate(0,75,99)"/><rect x="77" y="97" width="4" height="4" transform="rotate(0,79,99)"/><rect x="81" y="97" width="4" height="4" transform="rotate(0,83,99)"/><rect x="85" y="97" width="4" height="4" transform="rotate(0,87,99)"/><rect x="97" y="97" width="4" height="4" transform="rotate(0,99,99)"/><rect x="113" y="97" width="4" height="4" transform="rotate(0,115,99)"/><rect x="129" y="97" width="4" height="4" transform="rotate(0,131,99)"/><rect x="137" y="97" width="4" height="4" transform="rotate(0,139,99)"/><rect x="13" y="101" width="4" height="4" transform="rotate(0,15,103)"/><rect x="21" y="101" width="4" height="4" transform="rotate(0,23,103)"/><rect x="41" y="101" width="4" height="4" transform="rotate(0,43,103)"/><rect x="57" y="101" width="4" height="4" transform="rotate(0,59,103)"/><rect x="61" y="101" width="4" height="4" transform="rotate(0,63,103)"/><rect x="65" y="101" width="4" height="4" transform="rotate(0,67,103)"/><rect x="73" y="101" width="4" height="4" transform="rotate(0,75,103)"/><rect x="77" y="101" width="4" height="4" transform="rotate(0,79,103)"/><rect x="81" y="101" width="4" height="4" transform="rotate(0,83,103)"/><rect x="89" y="101" width="4" height="4" transform="rotate(0,91,103)"/><rect x="93" y="101" width="4" height="4" transform="rotate(0,95,103)"/><rect x="117" y="101" width="4" height="4" transform="rotate(0,119,103)"/><rect x="121" y="101" width="4" height="4" transform="rotate(0,123,103)"/><rect x="125" y="101" width="4" height="4" transform="rotate(0,127,103)"/><rect x="9" y="105" width="4" height="4" transform="rotate(0,11,107)"/><rect x="17" y="105" width="4" height="4" transform="rotate(0,19,107)"/><rect x="25" y="105" width="4" height="4" transform="rotate(0,27,107)"/><rect x="29" y="105" width="4" height="4" transform="rotate(0,31,107)"/><rect x="33" y="105" width="4" height="4" transform="rotate(0,35,107)"/><rect x="41" y="105" width="4" height="4" transform="rotate(0,43,107)"/><rect x="45" y="105" width="4" height="4" transform="rotate(0,47,107)"/><rect x="49" y="105" width="4" height="4" transform="rotate(0,51,107)"/><rect x="53" y="105" width="4" height="4" transform="rotate(0,55,107)"/><rect x="57" y="105" width="4" height="4" transform="rotate(0,59,107)"/><rect x="65" y="105" width="4" height="4" transform="rotate(0,67,107)"/><rect x="69" y="105" width="4" height="4" transform="rotate(0,71,107)"/><rect x="81" y="105" width="4" height="4" transform="rotate(0,83,107)"/><rect x="89" y="105" width="4" height="4" transform="rotate(0,91,107)"/><rect x="93" y="105" width="4" height="4" transform="rotate(0,95,107)"/><rect x="105" y="105" width="4" height="4" transform="rotate(0,107,107)"/><rect x="109" y="105" width="4" height="4" transform="rotate(0,111,107)"/><rect x="113" y="105" width="4" height="4" transform="rotate(0,115,107)"/><rect x="117" y="105" width="4" height="4" transform="rotate(0,119,107)"/><rect x="121" y="105" width="4" height="4" transform="rotate(0,123,107)"/><rect x="41" y="109" width="4" height="4" transform="rotate(0,43,111)"/><rect x="49" y="109" width="4" height="4" transform="rotate(0,51,111)"/><rect x="53" y="109" width="4" height="4" transform="rotate(0,55,111)"/><rect x="61" y="109" width="4" height="4" transform="rotate(0,63,111)"/><rect x="65" y="109" width="4" height="4" transform="rotate(0,67,111)"/><rect x="73" y="109" width="4" height="4" transform="rotate(0,75,111)"/><rect x="81" y="109" width="4" height="4" transform="rotate(0,83,111)"/><rect x="85" y="109" width="4" height="4" transform="rotate(0,87,111)"/><rect x="89" y="109" width="4" height="4" transform="rotate(0,91,111)"/><rect x="93" y="109" width="4" height="4" transform="rotate(0,95,111)"/><rect x="105" y="109" width="4" height="4" transform="rotate(0,107,111)"/><rect x="121" y="109" width="4" height="4" transform="rotate(0,123,111)"/><rect x="125" y="109" width="4" height="4" transform="rotate(0,127,111)"/><rect x="137" y="109" width="4" height="4" transform="rotate(0,139,111)"/><rect x="41" y="113" width="4" height="4" transform="rotate(0,43,115)"/><rect x="49" y="113" width="4" height="4" transform="rotate(0,51,115)"/><rect x="53" y="113" width="4" height="4" transform="rotate(0,55,115)"/><rect x="65" y="113" width="4" height="4" transform="rotate(0,67,115)"/><rect x="93" y="113" width="4" height="4" transform="rotate(0,95,115)"/><rect x="105" y="113" width="4" height="4" transform="rotate(0,107,115)"/><rect x="113" y="113" width="4" height="4" transform="rotate(0,115,115)"/><rect x="121" y="113" width="4" height="4" transform="rotate(0,123,115)"/><rect x="125" y="113" width="4" height="4" transform="rotate(0,127,115)"/><rect x="129" y="113" width="4" height="4" transform="rotate(0,131,115)"/><rect x="41" y="117" width="4" height="4" transform="rotate(0,43,119)"/><rect x="45" y="117" width="4" height="4" transform="rotate(0,47,119)"/><rect x="49" y="117" width="4" height="4" transform="rotate(0,51,119)"/><rect x="53" y="117" width="4" height="4" transform="rotate(0,55,119)"/><rect x="61" y="117" width="4" height="4" transform="rotate(0,63,119)"/><rect x="65" y="117" width="4" height="4" transform="rotate(0,67,119)"/><rect x="69" y="117" width="4" height="4" transform="rotate(0,71,119)"/><rect x="73" y="117" width="4" height="4" transform="rotate(0,75,119)"/><rect x="93" y="117" width="4" height="4" transform="rotate(0,95,119)"/><rect x="97" y="117" width="4" height="4" transform="rotate(0,99,119)"/><rect x="105" y="117" width="4" height="4" transform="rotate(0,107,119)"/><rect x="121" y="117" width="4" height="4" transform="rotate(0,123,119)"/><rect x="45" y="121" width="4" height="4" transform="rotate(0,47,123)"/><rect x="49" y="121" width="4" height="4" transform="rotate(0,51,123)"/><rect x="73" y="121" width="4" height="4" transform="rotate(0,75,123)"/><rect x="81" y="121" width="4" height="4" transform="rotate(0,83,123)"/><rect x="85" y="121" width="4" height="4" transform="rotate(0,87,123)"/><rect x="89" y="121" width="4" height="4" transform="rotate(0,91,123)"/><rect x="97" y="121" width="4" height="4" transform="rotate(0,99,123)"/><rect x="105" y="121" width="4" height="4" transform="rotate(0,107,123)"/><rect x="109" y="121" width="4" height="4" transform="rotate(0,111,123)"/><rect x="113" y="121" width="4" height="4" transform="rotate(0,115,123)"/><rect x="117" y="121" width="4" height="4" transform="rotate(0,119,123)"/><rect x="121" y="121" width="4" height="4" transform="rotate(0,123,123)"/><rect x="125" y="121" width="4" height="4" transform="rotate(0,127,123)"/><rect x="41" y="125" width="4" height="4" transform="rotate(0,43,127)"/><rect x="49" y="125" width="4" height="4" transform="rotate(0,51,127)"/><rect x="53" y="125" width="4" height="4" transform="rotate(0,55,127)"/><rect x="57" y="125" width="4" height="4" transform="rotate(0,59,127)"/><rect x="61" y="125" width="4" height="4" transform="rotate(0,63,127)"/><rect x="65" y="125" width="4" height="4" transform="rotate(0,67,127)"/><rect x="73" y="125" width="4" height="4" transform="rotate(0,75,127)"/><rect x="81" y="125" width="4" height="4" transform="rotate(0,83,127)"/><rect x="93" y="125" width="4" height="4" transform="rotate(0,95,127)"/><rect x="97" y="125" width="4" height="4" transform="rotate(0,99,127)"/><rect x="101" y="125" width="4" height="4" transform="rotate(0,103,127)"/><rect x="105" y="125" width="4" height="4" transform="rotate(0,107,127)"/><rect x="113" y="125" width="4" height="4" transform="rotate(0,115,127)"/><rect x="121" y="125" width="4" height="4" transform="rotate(0,123,127)"/><rect x="133" y="125" width="4" height="4" transform="rotate(0,135,127)"/><rect x="49" y="129" width="4" height="4" transform="rotate(0,51,131)"/><rect x="53" y="129" width="4" height="4" transform="rotate(0,55,131)"/><rect x="61" y="129" width="4" height="4" transform="rotate(0,63,131)"/><rect x="69" y="129" width="4" height="4" transform="rotate(0,71,131)"/><rect x="73" y="129" width="4" height="4" transform="rotate(0,75,131)"/><rect x="89" y="129" width="4" height="4" transform="rotate(0,91,131)"/><rect x="101" y="129" width="4" height="4" transform="rotate(0,103,131)"/><rect x="105" y="129" width="4" height="4" transform="rotate(0,107,131)"/><rect x="109" y="129" width="4" height="4" transform="rotate(0,111,131)"/><rect x="121" y="129" width="4" height="4" transform="rotate(0,123,131)"/><rect x="125" y="129" width="4" height="4" transform="rotate(0,127,131)"/><rect x="137" y="129" width="4" height="4" transform="rotate(0,139,131)"/><rect x="41" y="133" width="4" height="4" transform="rotate(0,43,135)"/><rect x="57" y="133" width="4" height="4" transform="rotate(0,59,135)"/><rect x="61" y="133" width="4" height="4" transform="rotate(0,63,135)"/><rect x="65" y="133" width="4" height="4" transform="rotate(0,67,135)"/><rect x="77" y="133" width="4" height="4" transform="rotate(0,79,135)"/><rect x="93" y="133" width="4" height="4" transform="rotate(0,95,135)"/><rect x="109" y="133" width="4" height="4" transform="rotate(0,111,135)"/><rect x="49" y="137" width="4" height="4" transform="rotate(0,51,139)"/><rect x="53" y="137" width="4" height="4" transform="rotate(0,55,139)"/><rect x="61" y="137" width="4" height="4" transform="rotate(0,63,139)"/><rect x="65" y="137" width="4" height="4" transform="rotate(0,67,139)"/><rect x="73" y="137" width="4" height="4" transform="rotate(0,75,139)"/><rect x="77" y="137" width="4" height="4" transform="rotate(0,79,139)"/><rect x="81" y="137" width="4" height="4" transform="rotate(0,83,139)"/><rect x="85" y="137" width="4" height="4" transform="rotate(0,87,139)"/><rect x="93" y="137" width="4" height="4" transform="rotate(0,95,139)"/><rect x="105" y="137" width="4" height="4" transform="rotate(0,107,139)"/><rect x="121" y="137" width="4" height="4" transform="rotate(0,123,139)"/><rect x="125" y="137" width="4" height="4" transform="rotate(0,127,139)"/><rect x="133" y="137" width="4" height="4" transform="rotate(0,135,139)"/><rect x="9" y="9" width="4" height="4" transform="rotate(0,11,11)"/><rect x="13" y="9" width="4" height="4" transform="rotate(0,15,11)"/><rect x="17" y="9" width="4" height="4" transform="rotate(0,19,11)"/><rect x="21" y="9" width="4" height="4" transform="rotate(0,23,11)"/><rect x="25" y="9" width="4" height="4" transform="rotate(0,27,11)"/><rect x="29" y="9" width="4" height="4" transform="rotate(0,31,11)"/><rect x="33" y="9" width="4" height="4" transform="rotate(0,35,11)"/><rect x="9" y="13" width="4" height="4" transform="rotate(0,11,15)"/><rect x="33" y="13" width="4" height="4" transform="rotate(0,35,15)"/><rect x="9" y="17" width="4" height="4" transform="rotate(0,11,19)"/><rect x="33" y="17" width="4" height="4" transform="rotate(0,35,19)"/><rect x="9" y="21" width="4" height="4" transform="rotate(0,11,23)"/><rect x="33" y="21" width="4" height="4" transform="rotate(0,35,23)"/><rect x="9" y="25" width="4" height="4" transform="rotate(0,11,27)"/><rect x="33" y="25" width="4" height="4" transform="rotate(0,35,27)"/><rect x="9" y="29" width="4" height="4" transform="rotate(0,11,31)"/><rect x="33" y="29" width="4" height="4" transform="rotate(0,35,31)"/><rect x="9" y="33" width="4" height="4" transform="rotate(0,11,35)"/><rect x="13" y="33" width="4" height="4" transform="rotate(0,15,35)"/><rect x="17" y="33" width="4" height="4" transform="rotate(0,19,35)"/><rect x="21" y="33" width="4" height="4" transform="rotate(0,23,35)"/><rect x="25" y="33" width="4" height="4" transform="rotate(0,27,35)"/><rect x="29" y="33" width="4" height="4" transform="rotate(0,31,35)"/><rect x="33" y="33" width="4" height="4" transform="rotate(0,35,35)"/><rect x="17" y="17" width="4" height="4" transform="rotate(0,19,19)"/><rect x="21" y="17" width="4" height="4" transform="rotate(0,23,19)"/><rect x="25" y="17" width="4" height="4" transform="rotate(0,27,19)"/><rect x="17" y="21" width="4" height="4" transform="rotate(0,19,23)"/><rect x="21" y="21" width="4" height="4" transform="rotate(0,23,23)"/><rect x="25" y="21" width="4" height="4" transform="rotate(0,27,23)"/><rect x="17" y="25" width="4" height="4" transform="rotate(0,19,27)"/><rect x="21" y="25" width="4" height="4" transform="rotate(0,23,27)"/><rect x="25" y="25" width="4" height="4" transform="rotate(0,27,27)"/><rect x="113" y="9" width="4" height="4" transform="rotate(0,115,11)"/><rect x="117" y="9" width="4" height="4" transform="rotate(0,119,11)"/><rect x="121" y="9" width="4" height="4" transform="rotate(0,123,11)"/><rect x="125" y="9" width="4" height="4" transform="rotate(0,127,11)"/><rect x="129" y="9" width="4" height="4" transform="rotate(0,131,11)"/><rect x="133" y="9" width="4" height="4" transform="rotate(0,135,11)"/><rect x="137" y="9" width="4" height="4" transform="rotate(0,139,11)"/><rect x="113" y="13" width="4" height="4" transform="rotate(0,115,15)"/><rect x="137" y="13" width="4" height="4" transform="rotate(0,139,15)"/><rect x="113" y="17" width="4" height="4" transform="rotate(0,115,19)"/><rect x="137" y="17" width="4" height="4" transform="rotate(0,139,19)"/><rect x="113" y="21" width="4" height="4" transform="rotate(0,115,23)"/><rect x="137" y="21" width="4" height="4" transform="rotate(0,139,23)"/><rect x="113" y="25" width="4" height="4" transform="rotate(0,115,27)"/><rect x="137" y="25" width="4" height="4" transform="rotate(0,139,27)"/><rect x="113" y="29" width="4" height="4" transform="rotate(0,115,31)"/><rect x="137" y="29" width="4" height="4" transform="rotate(0,139,31)"/><rect x="113" y="33" width="4" height="4" transform="rotate(0,115,35)"/><rect x="117" y="33" width="4" height="4" transform="rotate(0,119,35)"/><rect x="121" y="33" width="4" height="4" transform="rotate(0,123,35)"/><rect x="125" y="33" width="4" height="4" transform="rotate(0,127,35)"/><rect x="129" y="33" width="4" height="4" transform="rotate(0,131,35)"/><rect x="133" y="33" width="4" height="4" transform="rotate(0,135,35)"/><rect x="137" y="33" width="4" height="4" transform="rotate(0,139,35)"/><rect x="121" y="17" width="4" height="4" transform="rotate(0,123,19)"/><rect x="125" y="17" width="4" height="4" transform="rotate(0,127,19)"/><rect x="129" y="17" width="4" height="4" transform="rotate(0,131,19)"/><rect x="121" y="21" width="4" height="4" transform="rotate(0,123,23)"/><rect x="125" y="21" width="4" height="4" transform="rotate(0,127,23)"/><rect x="129" y="21" width="4" height="4" transform="rotate(0,131,23)"/><rect x="121" y="25" width="4" height="4" transform="rotate(0,123,27)"/><rect x="125" y="25" width="4" height="4" transform="rotate(0,127,27)"/><rect x="129" y="25" width="4" height="4" transform="rotate(0,131,27)"/><rect x="9" y="113" width="4" height="4" transform="rotate(0,11,115)"/><rect x="13" y="113" width="4" height="4" transform="rotate(0,15,115)"/><rect x="17" y="113" width="4" height="4" transform="rotate(0,19,115)"/><rect x="21" y="113" width="4" height="4" transform="rotate(0,23,115)"/><rect x="25" y="113" width="4" height="4" transform="rotate(0,27,115)"/><rect x="29" y="113" width="4" height="4" transform="rotate(0,31,115)"/><rect x="33" y="113" width="4" height="4" transform="rotate(0,35,115)"/><rect x="9" y="117" width="4" height="4" transform="rotate(0,11,119)"/><rect x="33" y="117" width="4" height="4" transform="rotate(0,35,119)"/><rect x="9" y="121" width="4" height="4" transform="rotate(0,11,123)"/><rect x="33" y="121" width="4" height="4" transform="rotate(0,35,123)"/><rect x="9" y="125" width="4" height="4" transform="rotate(0,11,127)"/><rect x="33" y="125" width="4" height="4" transform="rotate(0,35,127)"/><rect x="9" y="129" width="4" height="4" transform="rotate(0,11,131)"/><rect x="33" y="129" width="4" height="4" transform="rotate(0,35,131)"/><rect x="9" y="133" width="4" height="4" transform="rotate(0,11,135)"/><rect x="33" y="133" width="4" height="4" transform="rotate(0,35,135)"/><rect x="9" y="137" width="4" height="4" transform="rotate(0,11,139)"/><rect x="13" y="137" width="4" height="4" transform="rotate(0,15,139)"/><rect x="17" y="137" width="4" height="4" transform="rotate(0,19,139)"/><rect x="21" y="137" width="4" height="4" transform="rotate(0,23,139)"/><rect x="25" y="137" width="4" height="4" transform="rotate(0,27,139)"/><rect x="29" y="137" width="4" height="4" transform="rotate(0,31,139)"/><rect x="33" y="137" width="4" height="4" transform="rotate(0,35,139)"/><rect x="17" y="121" width="4" height="4" transform="rotate(0,19,123)"/><rect x="21" y="121" width="4" height="4" transform="rotate(0,23,123)"/><rect x="25" y="121" width="4" height="4" transform="rotate(0,27,123)"/><rect x="17" y="125" width="4" height="4" transform="rotate(0,19,127)"/><rect x="21" y="125" width="4" height="4" transform="rotate(0,23,127)"/><rect x="25" y="125" width="4" height="4" transform="rotate(0,27,127)"/><rect x="17" y="129" width="4" height="4" transform="rotate(0,19,131)"/><rect x="21" y="129" width="4" height="4" transform="rotate(0,23,131)"/><rect x="25" y="129" width="4" height="4" transform="rotate(0,27,131)"/></clipPath></defs><rect x="0" y="0" height="150" width="150" clip-path="url('#clip-path-background-color-7')" fill="#FFFFFF"/><rect x="0" y="0" height="150" width="150" clip-path="url('#clip-path-dot-color-7')" fill="#a1a1a1"/></svg>