<?xml version="1.0" standalone="no"?>
<svg xmlns="http://www.w3.org/2000/svg" width="35" height="35" xmlns:xlink="http://www.w3.org/1999/xlink"
    viewBox="0 0 35 35">
    <defs>
        <clipPath id="clip-path-dot-color-18">
            <rect x="0" y="0" width="7" height="7" transform="rotate(0,60.5,4.5)" />
            <rect x="21" y="0" width="7" height="7" transform="rotate(0,81.5,4.5)" />
            <rect x="28" y="0" width="7" height="7" transform="rotate(0,88.5,4.5)" />
            <rect x="21" y="7" width="7" height="7" transform="rotate(0,81.5,11.5)" />
            <rect x="28" y="7" width="7" height="7" transform="rotate(0,88.5,11.5)" />
            <rect x="0" y="14" width="7" height="7" transform="rotate(0,60.5,18.5)" />
            <rect x="14" y="14" width="7" height="7" transform="rotate(0,74.5,18.5)" />
            <rect x="21" y="14" width="7" height="7" transform="rotate(0,81.5,18.5)" />
            <rect x="0" y="21" width="7" height="7" transform="rotate(0,60.5,25.5)" />
            <rect x="14" y="21" width="7" height="7" transform="rotate(0,74.5,25.5)" />
            <rect x="7" y="28" width="7" height="7" transform="rotate(0,67.5,32.5)" />
            <rect x="21" y="28" width="7" height="7" transform="rotate(0,81.5,32.5)" />
            <rect x="28" y="28" width="7" height="7" transform="rotate(0,88.5,32.5)" />
        </clipPath>
    </defs>
    <rect x="0" y="0" height="35" width="35" clip-path="url('#clip-path-dot-color-18')" fill="#000000" />
</svg>
