<?xml version="1.0" standalone="no"?>
<svg xmlns="http://www.w3.org/2000/svg" width="50" height="50" xmlns:xlink="http://www.w3.org/1999/xlink"
    viewBox="0 0 50 50">
    <defs>
        <clipPath id="clip-path-dot-color-54">
            <rect x="15" y="15" width="7" height="7" transform="rotate(0,18.5,18.5)" />
            <rect x="22" y="15" width="7" height="7" transform="rotate(0,25.5,18.5)" />
            <rect x="29" y="15" width="7" height="7" transform="rotate(0,32.5,18.5)" />
            <rect x="15" y="22" width="7" height="7" transform="rotate(0,18.5,25.5)" />
            <rect x="22" y="22" width="7" height="7" transform="rotate(0,25.5,25.5)" />
            <rect x="29" y="22" width="7" height="7" transform="rotate(0,32.5,25.5)" />
            <rect x="15" y="29" width="7" height="7" transform="rotate(0,18.5,32.5)" />
            <rect x="22" y="29" width="7" height="7" transform="rotate(0,25.5,32.5)" />
            <rect x="29" y="29" width="7" height="7" transform="rotate(0,32.5,32.5)" />
        </clipPath>
    </defs>
    <rect x="0" y="0" height="50" width="50" clip-path="url('#clip-path-dot-color-54')" fill="#000000" />
</svg>
